<?xml version="1.0" encoding="utf-8"?>
<!-- Generator: Adobe Illustrator 27.3.1, SVG Export Plug-In . SVG Version: 6.00 Build 0)  -->
<svg version="1.1" id="ELEMENTS" xmlns="http://www.w3.org/2000/svg" xmlns:xlink="http://www.w3.org/1999/xlink" x="0px" y="0px"
	 viewBox="0 0 29.2 29.2" style="enable-background:new 0 0 29.2 29.2;" xml:space="preserve">
<style type="text/css">
	.st0{fill:#FFFFFF;}
</style>
<path class="st0" d="M29.2,7.7c0-4.2-3.4-7.7-7.6-7.7H7.7C3.4,0,0,3.4,0,7.7v13.9c0,4.2,3.4,7.6,7.7,7.6h4.7v-9.9H8.6v-4.2h3.7v-3.2
	c0-3.7,2.2-5.7,5.5-5.7c1.6,0,3.3,0.3,3.3,0.3v3.6h-1.8c-1.8,0-2.4,1.1-2.4,2.3v2.7H21l-0.6,4.2h-3.4v9.9h4.7c4.2,0,7.6-3.4,7.6-7.6
	L29.2,7.7z"/>
</svg>
