<?xml version="1.0" encoding="utf-8"?>
<!-- Generator: Adobe Illustrator 27.3.1, SVG Export Plug-In . SVG Version: 6.00 Build 0)  -->
<svg version="1.1" id="ELEMENTS" xmlns="http://www.w3.org/2000/svg" xmlns:xlink="http://www.w3.org/1999/xlink" x="0px" y="0px"
	 viewBox="0 0 29.2 29.2" style="enable-background:new 0 0 29.2 29.2;" xml:space="preserve">
<style type="text/css">
	.st0{fill:#FFFFFF;}
</style>
<path class="st0" d="M29.2,7.7c0-4.2-3.4-7.7-7.6-7.7H7.7C3.4,0,0,3.4,0,7.7v13.9c0,4.2,3.4,7.6,7.7,7.6h13.9c4.2,0,7.6-3.4,7.6-7.6
	V7.7z M11.3,21H8.5v-9.1h2.8V21z M9.9,10.7C9,10.7,8.3,9.9,8.3,9c0-0.9,0.7-1.6,1.6-1.6s1.6,0.7,1.6,1.6
	C11.6,9.9,10.8,10.7,9.9,10.7z M21.9,21h-2.8v-4.4c0-1.1,0-2.4-1.5-2.4c-1.5,0-1.7,1.1-1.7,2.3V21h-2.8v-9.1h2.7v1.2h0
	c0.4-0.7,1.3-1.5,2.7-1.5c2.9,0,3.4,1.9,3.4,4.3L21.9,21L21.9,21z"/>
</svg>
