<?xml version="1.0" encoding="utf-8"?>
<!-- Generator: Adobe Illustrator 27.3.1, SVG Export Plug-In . SVG Version: 6.00 Build 0)  -->
<svg version="1.1" id="ELEMENTS" xmlns="http://www.w3.org/2000/svg" xmlns:xlink="http://www.w3.org/1999/xlink" x="0px" y="0px"
	 viewBox="0 0 29.2 29.2" style="enable-background:new 0 0 29.2 29.2;" xml:space="preserve">
<style type="text/css">
	.st0{fill:#FFFFFF;}
</style>
<g>
	<polygon class="st0" points="8.7,7.7 18.9,21.5 20.5,21.5 10.4,7.7 	"/>
	<path class="st0" d="M29.2,7.7c0-4.2-3.4-7.7-7.6-7.7H7.7C3.4,0,0,3.4,0,7.7v13.9c0,4.2,3.4,7.6,7.7,7.6h13.9
		c4.2,0,7.6-3.4,7.6-7.6V7.7z M18.1,23.2l-4.4-6l-5.1,6H5.8l6.6-7.8L5.5,6.1h5.8l4,5.5l4.6-5.5h2.8l-6.1,7.3l7.2,9.9
		C23.8,23.2,18.1,23.2,18.1,23.2z"/>
</g>
</svg>
